<mxfile host="app.diagrams.net" modified="2024-04-27T03:58:22.498Z" agent="Mozilla/5.0 (Windows NT 10.0; Win64; x64) AppleWebKit/537.36 (KHTML, like Gecko) Chrome/123.0.0.0 Safari/537.36" etag="ZYfUQWMPV4EclkvJVpnU" version="24.3.0" type="device">
  <diagram name="Page-1" id="MdmT5e10n6XD0PZc3VMa">
    <mxGraphModel dx="880" dy="1568" grid="1" gridSize="10" guides="1" tooltips="1" connect="1" arrows="1" fold="1" page="1" pageScale="1" pageWidth="850" pageHeight="1100" math="0" shadow="0">
      <root>
        <mxCell id="0" />
        <mxCell id="1" parent="0" />
        <mxCell id="Z2GCPUI0oGUjT4MCKu2e-1" value="add product" style="swimlane;fontStyle=0;childLayout=stackLayout;horizontal=1;startSize=30;horizontalStack=0;resizeParent=1;resizeParentMax=0;resizeLast=0;collapsible=1;marginBottom=0;whiteSpace=wrap;html=1;fillColor=#60a917;fontColor=#ffffff;strokeColor=#2D7600;" vertex="1" parent="1">
          <mxGeometry x="40" y="80" width="140" height="120" as="geometry" />
        </mxCell>
        <mxCell id="Z2GCPUI0oGUjT4MCKu2e-2" value="product price" style="text;strokeColor=#A50040;fillColor=#d80073;align=left;verticalAlign=middle;spacingLeft=4;spacingRight=4;overflow=hidden;points=[[0,0.5],[1,0.5]];portConstraint=eastwest;rotatable=0;whiteSpace=wrap;html=1;fontColor=#ffffff;" vertex="1" parent="Z2GCPUI0oGUjT4MCKu2e-1">
          <mxGeometry y="30" width="140" height="30" as="geometry" />
        </mxCell>
        <mxCell id="Z2GCPUI0oGUjT4MCKu2e-3" value="catacary" style="text;strokeColor=#001DBC;fillColor=#0050ef;align=left;verticalAlign=middle;spacingLeft=4;spacingRight=4;overflow=hidden;points=[[0,0.5],[1,0.5]];portConstraint=eastwest;rotatable=0;whiteSpace=wrap;html=1;fontColor=#ffffff;" vertex="1" parent="Z2GCPUI0oGUjT4MCKu2e-1">
          <mxGeometry y="60" width="140" height="30" as="geometry" />
        </mxCell>
        <mxCell id="Z2GCPUI0oGUjT4MCKu2e-4" value="upload photo" style="text;strokeColor=#6F0000;fillColor=#a20025;align=left;verticalAlign=middle;spacingLeft=4;spacingRight=4;overflow=hidden;points=[[0,0.5],[1,0.5]];portConstraint=eastwest;rotatable=0;whiteSpace=wrap;html=1;fontColor=#ffffff;" vertex="1" parent="Z2GCPUI0oGUjT4MCKu2e-1">
          <mxGeometry y="90" width="140" height="30" as="geometry" />
        </mxCell>
        <mxCell id="Z2GCPUI0oGUjT4MCKu2e-5" value="admin" style="swimlane;fontStyle=0;childLayout=stackLayout;horizontal=1;startSize=30;horizontalStack=0;resizeParent=1;resizeParentMax=0;resizeLast=0;collapsible=1;marginBottom=0;whiteSpace=wrap;html=1;fillColor=#0050ef;fontColor=#ffffff;strokeColor=#001DBC;" vertex="1" parent="1">
          <mxGeometry x="285" y="80" width="140" height="120" as="geometry" />
        </mxCell>
        <mxCell id="Z2GCPUI0oGUjT4MCKu2e-6" value="registation" style="text;strokeColor=#005700;fillColor=#008a00;align=left;verticalAlign=middle;spacingLeft=4;spacingRight=4;overflow=hidden;points=[[0,0.5],[1,0.5]];portConstraint=eastwest;rotatable=0;whiteSpace=wrap;html=1;fontColor=#ffffff;" vertex="1" parent="Z2GCPUI0oGUjT4MCKu2e-5">
          <mxGeometry y="30" width="140" height="30" as="geometry" />
        </mxCell>
        <mxCell id="Z2GCPUI0oGUjT4MCKu2e-7" value="login" style="text;strokeColor=#A50040;fillColor=#d80073;align=left;verticalAlign=middle;spacingLeft=4;spacingRight=4;overflow=hidden;points=[[0,0.5],[1,0.5]];portConstraint=eastwest;rotatable=0;whiteSpace=wrap;html=1;fontColor=#ffffff;" vertex="1" parent="Z2GCPUI0oGUjT4MCKu2e-5">
          <mxGeometry y="60" width="140" height="30" as="geometry" />
        </mxCell>
        <mxCell id="Z2GCPUI0oGUjT4MCKu2e-8" value="password" style="text;strokeColor=#006EAF;fillColor=#1ba1e2;align=left;verticalAlign=middle;spacingLeft=4;spacingRight=4;overflow=hidden;points=[[0,0.5],[1,0.5]];portConstraint=eastwest;rotatable=0;whiteSpace=wrap;html=1;fontColor=#ffffff;" vertex="1" parent="Z2GCPUI0oGUjT4MCKu2e-5">
          <mxGeometry y="90" width="140" height="30" as="geometry" />
        </mxCell>
        <mxCell id="Z2GCPUI0oGUjT4MCKu2e-13" value="view all product" style="swimlane;fontStyle=0;childLayout=stackLayout;horizontal=1;startSize=30;horizontalStack=0;resizeParent=1;resizeParentMax=0;resizeLast=0;collapsible=1;marginBottom=0;whiteSpace=wrap;html=1;fillColor=#6d8764;fontColor=#ffffff;strokeColor=#3A5431;" vertex="1" parent="1">
          <mxGeometry x="40" y="280" width="140" height="120" as="geometry" />
        </mxCell>
        <mxCell id="Z2GCPUI0oGUjT4MCKu2e-14" value="p=name" style="text;strokeColor=#432D57;fillColor=#76608a;align=left;verticalAlign=middle;spacingLeft=4;spacingRight=4;overflow=hidden;points=[[0,0.5],[1,0.5]];portConstraint=eastwest;rotatable=0;whiteSpace=wrap;html=1;fontColor=#ffffff;" vertex="1" parent="Z2GCPUI0oGUjT4MCKu2e-13">
          <mxGeometry y="30" width="140" height="30" as="geometry" />
        </mxCell>
        <mxCell id="Z2GCPUI0oGUjT4MCKu2e-15" value="price" style="text;strokeColor=#C73500;fillColor=#fa6800;align=left;verticalAlign=middle;spacingLeft=4;spacingRight=4;overflow=hidden;points=[[0,0.5],[1,0.5]];portConstraint=eastwest;rotatable=0;whiteSpace=wrap;html=1;fontColor=#000000;" vertex="1" parent="Z2GCPUI0oGUjT4MCKu2e-13">
          <mxGeometry y="60" width="140" height="30" as="geometry" />
        </mxCell>
        <mxCell id="Z2GCPUI0oGUjT4MCKu2e-16" value="quality type" style="text;strokeColor=#B20000;fillColor=#e51400;align=left;verticalAlign=middle;spacingLeft=4;spacingRight=4;overflow=hidden;points=[[0,0.5],[1,0.5]];portConstraint=eastwest;rotatable=0;whiteSpace=wrap;html=1;fontColor=#ffffff;" vertex="1" parent="Z2GCPUI0oGUjT4MCKu2e-13">
          <mxGeometry y="90" width="140" height="30" as="geometry" />
        </mxCell>
        <mxCell id="Z2GCPUI0oGUjT4MCKu2e-17" value="edit product" style="swimlane;fontStyle=0;childLayout=stackLayout;horizontal=1;startSize=30;horizontalStack=0;resizeParent=1;resizeParentMax=0;resizeLast=0;collapsible=1;marginBottom=0;whiteSpace=wrap;html=1;fillColor=#f0a30a;fontColor=#000000;strokeColor=#BD7000;" vertex="1" parent="1">
          <mxGeometry x="280" y="280" width="140" height="120" as="geometry" />
        </mxCell>
        <mxCell id="Z2GCPUI0oGUjT4MCKu2e-18" value="product type" style="text;strokeColor=#B20000;fillColor=#e51400;align=left;verticalAlign=middle;spacingLeft=4;spacingRight=4;overflow=hidden;points=[[0,0.5],[1,0.5]];portConstraint=eastwest;rotatable=0;whiteSpace=wrap;html=1;fontColor=#ffffff;" vertex="1" parent="Z2GCPUI0oGUjT4MCKu2e-17">
          <mxGeometry y="30" width="140" height="30" as="geometry" />
        </mxCell>
        <mxCell id="Z2GCPUI0oGUjT4MCKu2e-19" value="product name" style="text;strokeColor=#432D57;fillColor=#76608a;align=left;verticalAlign=middle;spacingLeft=4;spacingRight=4;overflow=hidden;points=[[0,0.5],[1,0.5]];portConstraint=eastwest;rotatable=0;whiteSpace=wrap;html=1;fontColor=#ffffff;" vertex="1" parent="Z2GCPUI0oGUjT4MCKu2e-17">
          <mxGeometry y="60" width="140" height="30" as="geometry" />
        </mxCell>
        <mxCell id="Z2GCPUI0oGUjT4MCKu2e-20" value="price" style="text;strokeColor=#6D1F00;fillColor=#a0522d;align=left;verticalAlign=middle;spacingLeft=4;spacingRight=4;overflow=hidden;points=[[0,0.5],[1,0.5]];portConstraint=eastwest;rotatable=0;whiteSpace=wrap;html=1;fontColor=#ffffff;" vertex="1" parent="Z2GCPUI0oGUjT4MCKu2e-17">
          <mxGeometry y="90" width="140" height="30" as="geometry" />
        </mxCell>
        <mxCell id="Z2GCPUI0oGUjT4MCKu2e-21" value="logout" style="swimlane;fontStyle=0;childLayout=stackLayout;horizontal=1;startSize=30;horizontalStack=0;resizeParent=1;resizeParentMax=0;resizeLast=0;collapsible=1;marginBottom=0;whiteSpace=wrap;html=1;fillColor=#e51400;fontColor=#ffffff;strokeColor=#B20000;" vertex="1" parent="1">
          <mxGeometry x="520" y="280" width="140" height="90" as="geometry" />
        </mxCell>
        <mxCell id="Z2GCPUI0oGUjT4MCKu2e-22" value="logout" style="text;strokeColor=#001DBC;fillColor=#0050ef;align=left;verticalAlign=middle;spacingLeft=4;spacingRight=4;overflow=hidden;points=[[0,0.5],[1,0.5]];portConstraint=eastwest;rotatable=0;whiteSpace=wrap;html=1;fontColor=#ffffff;" vertex="1" parent="Z2GCPUI0oGUjT4MCKu2e-21">
          <mxGeometry y="30" width="140" height="30" as="geometry" />
        </mxCell>
        <mxCell id="Z2GCPUI0oGUjT4MCKu2e-23" value="signout" style="text;strokeColor=#3A5431;fillColor=#6d8764;align=left;verticalAlign=middle;spacingLeft=4;spacingRight=4;overflow=hidden;points=[[0,0.5],[1,0.5]];portConstraint=eastwest;rotatable=0;whiteSpace=wrap;html=1;fontColor=#ffffff;" vertex="1" parent="Z2GCPUI0oGUjT4MCKu2e-21">
          <mxGeometry y="60" width="140" height="30" as="geometry" />
        </mxCell>
        <mxCell id="Z2GCPUI0oGUjT4MCKu2e-26" value="view order" style="swimlane;fontStyle=0;childLayout=stackLayout;horizontal=1;startSize=30;horizontalStack=0;resizeParent=1;resizeParentMax=0;resizeLast=0;collapsible=1;marginBottom=0;whiteSpace=wrap;html=1;fillColor=#e51400;fontColor=#ffffff;strokeColor=#B20000;" vertex="1" parent="1">
          <mxGeometry x="520" y="80" width="140" height="120" as="geometry" />
        </mxCell>
        <mxCell id="Z2GCPUI0oGUjT4MCKu2e-27" value="product id" style="text;strokeColor=#BD7000;fillColor=#f0a30a;align=left;verticalAlign=middle;spacingLeft=4;spacingRight=4;overflow=hidden;points=[[0,0.5],[1,0.5]];portConstraint=eastwest;rotatable=0;whiteSpace=wrap;html=1;fontColor=#000000;" vertex="1" parent="Z2GCPUI0oGUjT4MCKu2e-26">
          <mxGeometry y="30" width="140" height="30" as="geometry" />
        </mxCell>
        <mxCell id="Z2GCPUI0oGUjT4MCKu2e-28" value="email" style="text;strokeColor=#C73500;fillColor=#fa6800;align=left;verticalAlign=middle;spacingLeft=4;spacingRight=4;overflow=hidden;points=[[0,0.5],[1,0.5]];portConstraint=eastwest;rotatable=0;whiteSpace=wrap;html=1;fontColor=#000000;" vertex="1" parent="Z2GCPUI0oGUjT4MCKu2e-26">
          <mxGeometry y="60" width="140" height="30" as="geometry" />
        </mxCell>
        <mxCell id="Z2GCPUI0oGUjT4MCKu2e-29" value="address" style="text;strokeColor=#B09500;fillColor=#e3c800;align=left;verticalAlign=middle;spacingLeft=4;spacingRight=4;overflow=hidden;points=[[0,0.5],[1,0.5]];portConstraint=eastwest;rotatable=0;whiteSpace=wrap;html=1;fontColor=#000000;" vertex="1" parent="Z2GCPUI0oGUjT4MCKu2e-26">
          <mxGeometry y="90" width="140" height="30" as="geometry" />
        </mxCell>
        <mxCell id="Z2GCPUI0oGUjT4MCKu2e-30" value="class diagram" style="rounded=0;whiteSpace=wrap;html=1;fillColor=#0050ef;fontColor=#ffffff;strokeColor=#001DBC;" vertex="1" parent="1">
          <mxGeometry x="190" y="-60" width="380" height="60" as="geometry" />
        </mxCell>
        <mxCell id="Z2GCPUI0oGUjT4MCKu2e-33" value="" style="endArrow=classic;html=1;rounded=0;entryX=0;entryY=0.5;entryDx=0;entryDy=0;exitX=0.993;exitY=-0.067;exitDx=0;exitDy=0;exitPerimeter=0;" edge="1" parent="1" source="Z2GCPUI0oGUjT4MCKu2e-3" target="Z2GCPUI0oGUjT4MCKu2e-5">
          <mxGeometry width="50" height="50" relative="1" as="geometry">
            <mxPoint x="400" y="250" as="sourcePoint" />
            <mxPoint x="450" y="200" as="targetPoint" />
          </mxGeometry>
        </mxCell>
        <mxCell id="Z2GCPUI0oGUjT4MCKu2e-34" value="" style="endArrow=classic;html=1;rounded=0;entryX=-0.007;entryY=0.033;entryDx=0;entryDy=0;entryPerimeter=0;exitX=1;exitY=0.5;exitDx=0;exitDy=0;" edge="1" parent="1" source="Z2GCPUI0oGUjT4MCKu2e-5" target="Z2GCPUI0oGUjT4MCKu2e-28">
          <mxGeometry width="50" height="50" relative="1" as="geometry">
            <mxPoint x="400" y="250" as="sourcePoint" />
            <mxPoint x="450" y="200" as="targetPoint" />
          </mxGeometry>
        </mxCell>
        <mxCell id="Z2GCPUI0oGUjT4MCKu2e-35" value="" style="endArrow=classic;html=1;rounded=0;entryX=-0.021;entryY=1.233;entryDx=0;entryDy=0;entryPerimeter=0;exitX=1;exitY=0.5;exitDx=0;exitDy=0;" edge="1" parent="1" source="Z2GCPUI0oGUjT4MCKu2e-13" target="Z2GCPUI0oGUjT4MCKu2e-18">
          <mxGeometry width="50" height="50" relative="1" as="geometry">
            <mxPoint x="400" y="250" as="sourcePoint" />
            <mxPoint x="450" y="200" as="targetPoint" />
          </mxGeometry>
        </mxCell>
        <mxCell id="Z2GCPUI0oGUjT4MCKu2e-36" value="" style="endArrow=classic;html=1;rounded=0;entryX=0;entryY=0.5;entryDx=0;entryDy=0;exitX=1;exitY=0.5;exitDx=0;exitDy=0;" edge="1" parent="1" source="Z2GCPUI0oGUjT4MCKu2e-18" target="Z2GCPUI0oGUjT4MCKu2e-22">
          <mxGeometry width="50" height="50" relative="1" as="geometry">
            <mxPoint x="400" y="250" as="sourcePoint" />
            <mxPoint x="450" y="200" as="targetPoint" />
          </mxGeometry>
        </mxCell>
      </root>
    </mxGraphModel>
  </diagram>
</mxfile>
